<svg width="20" height="20" viewBox="0 0 20 20" fill="none" xmlns="http://www.w3.org/2000/svg">
<path d="M14 9.97966C14.0006 10.1019 13.9765 10.223 13.9292 10.3358C13.882 10.4487 13.8124 10.5511 13.7247 10.6369L7.46809 16.8378C7.28552 16.9614 7.06475 17.0172 6.84472 16.9953C6.62469 16.9734 6.41953 16.8752 6.26542 16.7181C6.11132 16.5609 6.01816 16.3548 6.00239 16.1362C5.98662 15.9176 6.04925 15.7005 6.17922 15.5232L11.7351 9.97966L6.17922 4.43613C6.06486 4.26132 6.01303 4.05352 6.03204 3.84603C6.05104 3.63855 6.13978 3.4434 6.28403 3.29185C6.42828 3.14031 6.61969 3.04115 6.82758 3.01027C7.03547 2.9794 7.24781 3.01858 7.43055 3.12155L13.6872 9.32237C13.7817 9.40505 13.8582 9.50599 13.912 9.61902C13.9658 9.73204 13.9957 9.85476 14 9.97966Z" fill="white"/>
</svg>
