<svg width="24" height="24" viewBox="0 0 24 24" fill="none" xmlns="http://www.w3.org/2000/svg">
<path fill-rule="evenodd" clip-rule="evenodd" d="M19.7778 10.5773C20.3384 10.5771 20.8784 10.7814 21.2895 11.1493C21.7006 11.5171 21.9524 12.0213 21.9944 12.5608L22 12.7216V19.1546C22.0002 19.6956 21.7884 20.2166 21.4072 20.6133C21.026 21.01 20.5035 21.253 19.9444 21.2935L19.7778 21.2989H15.3333C14.7727 21.2991 14.2327 21.0948 13.8216 20.7269C13.4105 20.3591 13.1587 19.8549 13.1167 19.3154L13.1111 19.1546V12.7216C13.1109 12.1806 13.3227 11.6596 13.7039 11.2629C14.0851 10.8662 14.6076 10.6232 15.1667 10.5827L15.3333 10.5773H19.7778ZM8.66667 14.8659C9.25604 14.8659 9.82127 15.0919 10.238 15.494C10.6548 15.8961 10.8889 16.4415 10.8889 17.0103V19.1546C10.8889 19.7233 10.6548 20.2687 10.238 20.6708C9.82127 21.073 9.25604 21.2989 8.66667 21.2989H4.22222C3.63285 21.2989 3.06762 21.073 2.65087 20.6708C2.23413 20.2687 2 19.7233 2 19.1546V17.0103C2 16.4415 2.23413 15.8961 2.65087 15.494C3.06762 15.0919 3.63285 14.8659 4.22222 14.8659H8.66667ZM19.7778 12.7216H15.3333V19.1546H19.7778V12.7216ZM8.66667 17.0103H4.22222V19.1546H8.66667V17.0103ZM8.66667 2C9.25604 2 9.82127 2.22592 10.238 2.62806C10.6548 3.0302 10.8889 3.57561 10.8889 4.14432V10.5773C10.8889 11.146 10.6548 11.6914 10.238 12.0936C9.82127 12.4957 9.25604 12.7216 8.66667 12.7216H4.22222C3.63285 12.7216 3.06762 12.4957 2.65087 12.0936C2.23413 11.6914 2 11.146 2 10.5773V4.14432C2 3.57561 2.23413 3.0302 2.65087 2.62806C3.06762 2.22592 3.63285 2 4.22222 2H8.66667ZM8.66667 4.14432H4.22222V10.5773H8.66667V4.14432ZM19.7778 2C20.3671 2 20.9324 2.22592 21.3491 2.62806C21.7659 3.0302 22 3.57561 22 4.14432V6.28864C22 6.85735 21.7659 7.40277 21.3491 7.80491C20.9324 8.20705 20.3671 8.43297 19.7778 8.43297H15.3333C14.744 8.43297 14.1787 8.20705 13.762 7.80491C13.3452 7.40277 13.1111 6.85735 13.1111 6.28864V4.14432C13.1111 3.57561 13.3452 3.0302 13.762 2.62806C14.1787 2.22592 14.744 2 15.3333 2H19.7778ZM19.7778 4.14432H15.3333V6.28864H19.7778V4.14432Z" fill="white"/>
<path fill-rule="evenodd" clip-rule="evenodd" d="M12.0951 21.4071L12.0843 21.409L12.0143 21.4422L11.9946 21.446L11.9809 21.4422L11.9109 21.409C11.9004 21.4058 11.8926 21.4074 11.8873 21.4137L11.8834 21.4232L11.8666 21.83L11.8715 21.849L11.8814 21.8613L11.9838 21.9316L11.9986 21.9354L12.0104 21.9316L12.1128 21.8613L12.1246 21.8461L12.1286 21.83L12.1118 21.4242C12.1092 21.414 12.1036 21.4083 12.0951 21.4071ZM12.3561 21.2997L12.3433 21.3016L12.1611 21.39L12.1512 21.3995L12.1483 21.4099L12.166 21.8186L12.1709 21.83L12.1788 21.8366L12.3768 21.925C12.3892 21.9282 12.3988 21.9256 12.4053 21.9174L12.4093 21.9041L12.3758 21.3206C12.3725 21.3092 12.3659 21.3022 12.3561 21.2997ZM11.6519 21.3016C11.6476 21.299 11.6424 21.2982 11.6374 21.2993C11.6325 21.3003 11.6281 21.3032 11.6253 21.3073L11.6194 21.3206L11.5859 21.9041C11.5866 21.9155 11.5922 21.9231 11.6027 21.9269L11.6175 21.925L11.8154 21.8366L11.8253 21.829L11.8292 21.8186L11.8459 21.4099L11.843 21.3985L11.8331 21.389L11.6519 21.3016Z" fill="white"/>
</svg>
