<svg width="167" height="167" viewBox="0 0 167 167" fill="none" xmlns="http://www.w3.org/2000/svg">
<path fill-rule="evenodd" clip-rule="evenodd" d="M90.4191 10.7192C91.4465 11.0735 92.3376 11.7396 92.9681 12.6246C93.5987 13.5097 93.9373 14.5695 93.9366 15.6561V73.0624H125.249C126.228 73.0626 127.188 73.3382 128.018 73.8578C128.847 74.3774 129.514 75.12 129.942 76.0008C130.37 76.8815 130.542 77.8649 130.437 78.8384C130.332 79.812 129.956 80.7365 129.351 81.5063L71.9448 154.569C71.274 155.422 70.3541 156.044 69.3131 156.35C68.272 156.656 67.1616 156.629 66.1363 156.274C65.1109 155.92 64.2217 155.254 63.5922 154.37C62.9627 153.487 62.6243 152.429 62.6241 151.344V93.9374H31.3116C30.3324 93.9372 29.373 93.6616 28.5431 93.142C27.7132 92.6224 27.0462 91.8797 26.6183 90.999C26.1905 90.1182 26.019 89.1349 26.1236 88.1613C26.2282 87.1878 26.6045 86.2633 27.2096 85.4935L84.6159 12.431C85.2855 11.5781 86.2041 10.955 87.2441 10.6483C88.2841 10.3415 89.3939 10.3663 90.4191 10.7192Z" fill="#F73090"/>
</svg>
