<svg width="328" height="104" viewBox="0 0 328 104" fill="none" xmlns="http://www.w3.org/2000/svg">
<rect x="120" y="34" width="36" height="36" rx="18" fill="#282828"/>
<path d="M145.951 44.4959C144.557 43.7985 143.049 43.2924 141.477 43C141.45 43.0004 141.423 43.0126 141.404 43.0337C141.215 43.4049 140.995 43.8885 140.849 44.2597C139.182 43.9899 137.487 43.9899 135.82 44.2597C135.673 43.8773 135.453 43.4049 135.254 43.0337C135.244 43.0112 135.212 43 135.181 43C133.609 43.2924 132.111 43.7985 130.707 44.4959C130.697 44.4959 130.686 44.5071 130.676 44.5184C127.826 49.0959 127.041 53.5498 127.428 57.9586C127.428 57.9811 127.439 58.0036 127.46 58.0149C129.345 59.4995 131.158 60.3992 132.949 60.9953C132.981 61.0066 133.012 60.9953 133.023 60.9728C133.442 60.3543 133.819 59.7019 134.144 59.0159C134.165 58.9709 134.144 58.9259 134.102 58.9146C133.505 58.6672 132.939 58.3748 132.384 58.0374C132.342 58.0149 132.342 57.9474 132.373 57.9136C132.488 57.8237 132.604 57.7224 132.719 57.6325C132.74 57.61 132.771 57.61 132.792 57.6212C136.396 59.387 140.283 59.387 143.845 57.6212C143.866 57.61 143.897 57.61 143.918 57.6325C144.034 57.7337 144.149 57.8237 144.264 57.9249C144.306 57.9586 144.306 58.0261 144.254 58.0486C143.709 58.3973 143.133 58.6784 142.535 58.9259C142.493 58.9371 142.483 58.9934 142.493 59.0271C142.829 59.7132 143.206 60.3655 143.614 60.9841C143.646 60.9953 143.677 61.0066 143.709 60.9953C145.511 60.3992 147.323 59.4995 149.209 58.0149C149.23 58.0036 149.24 57.9811 149.24 57.9586C149.701 52.8637 148.476 48.4436 145.993 44.5184C145.982 44.5071 145.972 44.4959 145.951 44.4959ZM134.689 55.2706C133.609 55.2706 132.708 54.2021 132.708 52.8862C132.708 51.5703 133.588 50.5018 134.689 50.5018C135.799 50.5018 136.679 51.5815 136.669 52.8862C136.669 54.2021 135.789 55.2706 134.689 55.2706ZM141.991 55.2706C140.912 55.2706 140.011 54.2021 140.011 52.8862C140.011 51.5703 140.891 50.5018 141.991 50.5018C143.101 50.5018 143.981 51.5815 143.971 52.8862C143.971 54.2021 143.101 55.2706 141.991 55.2706Z" fill="white"/>
<rect x="172" y="34" width="36" height="36" rx="18" fill="#282828"/>
<path d="M190.336 41C188.891 41 187.461 41.2916 186.126 41.8581C184.792 42.4246 183.579 43.255 182.558 44.3018C180.495 46.4159 179.336 49.2833 179.336 52.2731C179.336 57.2558 182.493 61.4832 186.86 62.9825C187.41 63.0727 187.586 62.7233 187.586 62.4189V60.5137C184.539 61.1901 183.89 59.0031 183.89 59.0031C183.384 57.6955 182.669 57.346 182.669 57.346C181.668 56.6471 182.746 56.6696 182.746 56.6696C183.846 56.7485 184.429 57.8307 184.429 57.8307C185.386 59.5442 187.003 59.037 187.63 58.7664C187.729 58.0336 188.015 57.5376 188.323 57.2558C185.881 56.974 183.318 56.0045 183.318 51.7094C183.318 50.4581 183.736 49.4548 184.451 48.6544C184.341 48.3726 183.956 47.2002 184.561 45.6783C184.561 45.6783 185.485 45.374 187.586 46.8282C188.455 46.5802 189.401 46.4562 190.336 46.4562C191.271 46.4562 192.217 46.5802 193.086 46.8282C195.187 45.374 196.111 45.6783 196.111 45.6783C196.716 47.2002 196.331 48.3726 196.221 48.6544C196.936 49.4548 197.354 50.4581 197.354 51.7094C197.354 56.0158 194.78 56.9627 192.327 57.2445C192.723 57.594 193.086 58.2817 193.086 59.3301V62.4189C193.086 62.7233 193.262 63.084 193.823 62.9825C198.19 61.4719 201.336 57.2558 201.336 52.2731C201.336 50.7927 201.051 49.3268 200.499 47.9591C199.946 46.5914 199.136 45.3486 198.114 44.3018C197.093 43.255 195.88 42.4246 194.545 41.8581C193.211 41.2916 191.78 41 190.336 41Z" fill="white"/>
</svg>
