<svg width="254" height="254" viewBox="0 0 254 254" fill="none" xmlns="http://www.w3.org/2000/svg">
<path d="M140.987 168.838L114.702 199.672C113.557 201.084 112.17 201.989 110.539 202.387C108.909 202.785 107.344 202.72 105.845 202.193C104.346 201.665 103.034 200.82 101.91 199.655C100.786 198.491 100.134 196.981 99.9542 195.124L96.1478 154.732L58.58 139.296C56.8603 138.548 55.582 137.468 54.745 136.055C53.908 134.642 53.509 133.123 53.548 131.499C53.587 129.875 53.9823 128.42 54.734 127.135C55.4856 125.849 56.7407 124.767 58.4995 123.891L95.8391 107.658L98.9087 67.3913C99.0392 65.5841 99.6672 64.0514 100.793 62.7932C101.918 61.5351 103.205 60.6638 104.654 60.1794C106.103 59.695 107.655 59.6168 109.311 59.9449C110.967 60.2731 112.39 61.1198 113.582 62.485L140.254 92.8067L179.848 83.3151C181.787 82.9607 183.44 83.0693 184.807 83.641C186.174 84.2127 187.365 85.1372 188.38 86.4145C189.395 87.6917 189.993 89.1466 190.174 90.779C190.356 92.4114 189.981 94.0417 189.05 95.6699L168.323 130.598L189.578 165.156C190.549 166.742 190.937 168.341 190.741 169.952C190.545 171.564 190.006 173.029 189.124 174.346C188.242 175.664 187.03 176.657 185.49 177.325C183.95 177.993 182.297 178.105 180.532 177.66L140.987 168.838Z" fill="#F73090"/>
</svg>
